# xmcd
#
# Track frame offsets:
#   150
#   5714
#   24768
#   42238
#   60700
#   80344
#   93102
#
# Disc length: 1435 seconds
#
# Revision: 0
# Processed by: cddbd v1.5.2PL0 Copyright (c) Steve Scherf et al.
# Submitted via: GXTranscoder 2.0.1939
#
DISCID=45059907
DTITLE=b - b
DYEAR=1900
DGENRE=b
TTITLE0=1
TTITLE1=2
TTITLE2=3
TTITLE3=4
TTITLE4=5
TTITLE5=6
TTITLE6=7
EXTD=
EXTT0=
EXTT1=
EXTT2=
EXTT3=
EXTT4=
EXTT5=
EXTT6=
PLAYORDER=
